<svg width="197" height="197" viewBox="0 0 197 197" fill="none" xmlns="http://www.w3.org/2000/svg">
<path fill-rule="evenodd" clip-rule="evenodd" d="M54.7222 142.278V197H142.278V142.278H197V54.7222H142.278V0H54.7222V54.7222H0V142.278H54.7222ZM112.181 57.4748H97.7886C97.2792 57.4436 96.7696 57.5317 96.3002 57.7319C91.7309 59.9591 88.8634 63.8937 87.1068 68.556C86.7785 69.417 86.4939 70.2834 86.2532 71.1553H74.9913C75.4401 69.0376 76.0475 66.8487 76.8683 64.6871C79.287 58.2792 83.7031 51.7016 91.501 47.8929C93.4666 46.9619 95.6194 46.4939 97.7941 46.5248H112.186C113.637 46.5248 115.029 47.1014 116.055 48.1276C117.082 49.1539 117.658 50.5457 117.658 51.9971C117.658 53.4484 117.082 54.8403 116.055 55.8665C115.029 56.8927 113.637 57.4693 112.186 57.4693M65.6721 76.6221C62.6515 76.6221 60.1288 79.1174 60.9496 82.0286C64.1071 93.2959 76.9613 102.062 93.0332 103.704V112.23C89.2301 112.323 85.2791 112.629 81.9246 113.603C79.3089 114.369 76.5345 115.672 74.4113 118.058C72.1896 120.553 71.1444 123.705 71.1444 127.224C71.1444 130.742 72.1841 133.9 74.4058 136.401C76.529 138.792 79.3034 140.105 81.9246 140.871C83.6758 141.38 85.591 141.709 87.561 141.917V130.901C86.6921 130.783 85.8327 130.604 84.9891 130.365C83.5116 129.927 82.8604 129.445 82.5923 129.139C82.4171 128.942 82.0888 128.499 82.0888 127.224C82.0888 125.965 82.4171 125.527 82.5813 125.336C82.8549 125.029 83.5006 124.542 84.9891 124.11C87.0849 123.503 89.7882 123.273 93.0332 123.185V153.233H76.6166V164.178H120.394V153.233H103.978V122.933C110.008 122.463 114.895 121.139 118.572 118.769C123.743 115.431 125.867 110.468 125.867 105.198C125.91 102.384 125.212 99.6073 123.842 97.1484C129.993 93.2631 134.387 87.9988 136.061 82.0286C136.882 79.1174 134.365 76.6221 131.339 76.6221H65.6721ZM103.978 111.945C108.405 111.518 111.092 110.566 112.64 109.57C114.309 108.492 114.922 107.228 114.922 105.198C114.922 103.66 114.572 102.615 113.669 101.751C110.514 102.725 107.269 103.379 103.983 103.704L103.978 111.945Z" fill="#E8FFE9"/>
</svg>
