<svg width="1518" height="1707" viewBox="0 0 1518 1707" fill="none" xmlns="http://www.w3.org/2000/svg">
<path d="M628.267 1.33352C577.733 7.73352 529.2 32.8002 491.733 71.6002C456 108.8 436.267 151.067 432.133 199.067C427.2 256.8 433.867 301.734 452.667 338.667C469.067 370.534 498.933 399.467 542.267 425.334C600.267 460 664.933 485.867 782.667 521.867C856.4 544.267 889.733 556.134 915.067 568.8C952.8 587.734 974.933 609.6 984.933 638C988.667 648.534 988.667 649.2 988.667 678C988.4 762.134 966.667 822.267 919.333 870C892.8 896.534 862.133 916.4 827.067 929.334L814.667 933.867V976.934V1020H818.8C825.6 1020 854.533 1013.73 871.467 1008.53C913.6 995.867 956.4 973.067 992 944.534C1006.67 932.8 1034.27 905.067 1045.87 890.667C1085.73 840.4 1109.73 786.4 1118.8 726C1122.4 702.4 1122.67 663.467 1119.47 643.334C1105.6 555.734 1048.27 498.667 938.667 463.334C907.067 453.2 875.867 446.267 809.333 434.667C773.467 428.4 762.133 426 733.333 418.534C586.8 380.8 514.667 312.534 514.533 211.467C514.533 137.067 555.733 77.4669 616.267 64.6669C629.067 61.8669 658.133 61.8669 674 64.6669C708.667 70.8002 734.133 84.9335 755.2 109.734C766.533 123.334 776.667 144.8 779.333 160.667C780.4 167.334 778.267 170.4 765.333 180.667C745.2 196.667 741.333 203.334 740.267 222C739.333 241.467 745.467 262.534 758 282.134C768.933 299.2 794.533 333.2 803.733 342.934C814.933 354.667 822.667 359.067 831.6 358.934C848.267 358.534 861.333 340.934 871.067 305.334C872.933 298.4 877.6 281.6 881.333 268C892.533 227.467 892.933 215.467 884.267 196.8C878.8 185.067 873.067 179.2 861.2 173.334C855.067 170.134 849.467 166.267 847.467 163.6C845.6 161.2 841.333 151.2 837.867 141.334C827.6 111.6 818.8 93.6002 804.8 74.1335C777.733 36.5335 740.933 12.9335 695.067 4.00019C678.533 0.800191 643.867 -0.533142 628.267 1.33352Z" fill="#E8FFE9"/>
<path d="M0 608.4C0 614.4 7.86667 627.733 15.3333 634.267C35.6 652.267 64.2667 663.467 98.6667 666.667C148.133 671.2 193.067 684.4 241.2 708.667C274.267 725.2 298.933 741.334 341.2 774.4C408.667 827.067 441.333 849.067 485.333 871.2C538.933 898.267 593.067 915.067 654 923.867C670.8 926.267 683.067 927.467 715.067 930.134L725.333 930.934V1064.67V1198.4L735.333 1199.87C746.133 1201.47 780.933 1201.87 787.867 1200.53L792 1199.73V1058.67V917.6L799.067 916C821.067 910.8 850.8 897.6 868.933 885.067C900 863.6 920.4 839.334 938.667 802C957.6 763.6 966.667 722.267 966.667 674.934C966.667 655.467 965.067 645.867 959.867 635.6C955.6 627.067 947.067 616.533 939.6 610.667L932.933 605.333H466.533H0V608.4Z" fill="#E8FFE9"/>
<path d="M1135.73 606.134C1135.2 606.534 1135.47 608.8 1136.13 611.067C1136.8 613.467 1138.67 621.867 1140.27 630C1142.8 642.8 1143.2 649.067 1143.33 680C1143.33 707.867 1142.8 718.534 1140.93 730.4C1136.53 757.867 1127.87 789.067 1118.53 810.934C1116.53 816 1115.2 820 1115.6 820C1116.8 820 1132.93 807.867 1168.4 780.4C1220 740.267 1241.6 725.867 1276.13 708.667C1324.27 684.4 1369.2 671.2 1418.67 666.667C1453.07 663.467 1481.73 652.267 1502 634.267C1509.47 627.734 1517.33 614.4 1517.33 608.4V605.334H1326.93C1222.13 605.334 1136.13 605.734 1135.73 606.134Z" fill="#E8FFE9"/>
<path d="M686.4 940.8C620.267 952.667 559.333 1004 537.467 1065.87C528.933 1089.87 527.6 1114 532.8 1146.67C542.133 1205.87 582.267 1248.8 654.667 1277.2C694.533 1292.93 731.067 1300 771.333 1300C865.733 1300 965.6 1254.93 1006.93 1193.47C1021.87 1171.47 1027.33 1153.2 1026.4 1129.33C1025.07 1098.8 1013.33 1077.33 990.533 1063.33C982.133 1058.13 960.4 1050.53 945.333 1047.47C913.067 1040.93 878.933 1044.4 819.733 1060.13L814.667 1061.47V1092.13C814.667 1116.93 815.067 1122.8 816.4 1122.27C823.6 1119.47 842.8 1116.8 855.333 1116.8C873.6 1116.67 881.333 1118.67 888.133 1125.47C894.533 1131.87 896.667 1138.93 896.667 1154C896.533 1167.33 893.6 1175.73 885.467 1186C872.533 1202 844.533 1214.93 809.333 1220.93C793.333 1223.73 744.133 1224.13 729.333 1221.6C693.067 1215.33 668.8 1204.8 651.333 1187.33C634.133 1170.27 628.8 1152.8 631.733 1123.07C634.533 1094.4 641.6 1076 655.467 1061.33C665.333 1050.93 675.733 1044.53 691.2 1039.2L702.667 1035.33V987.067V938.667L699.733 938.8C698 938.8 692.133 939.734 686.4 940.8Z" fill="#E8FFE9"/>
<path d="M687.2 1114.4C679.733 1119.33 668.933 1127.2 663.333 1131.87L653.067 1140.27L653.867 1146.4C655.067 1155.47 659.6 1163.73 667.867 1172.13C679.2 1183.47 680.133 1183.73 686.933 1177.6C690.133 1174.8 694.933 1170.93 697.733 1168.93L702.667 1165.2V1135.2C702.667 1118.8 702.267 1105.33 701.733 1105.33C701.067 1105.47 694.533 1109.47 687.2 1114.4Z" fill="#E8FFE9"/>
<path d="M581.467 1273.73C578 1291.07 576.8 1306.67 576.8 1331.33C576.8 1356.4 577.067 1358.67 580.4 1369.73C595.467 1418.8 636.933 1454.27 704.667 1475.87C738.267 1486.67 764.267 1490.53 875.333 1501.33C913.467 1505.07 917.333 1505.73 924.8 1509.2C929.333 1511.33 935.333 1515.07 938.133 1517.73C947.733 1526.27 953.333 1529.33 959.467 1529.33C963.867 1529.33 965.6 1528.67 967.2 1526.4C970 1522.4 969.867 1518.93 966.4 1509.73C959.467 1490.93 931.467 1472.27 895.333 1462.27C872.267 1455.87 860.533 1453.87 788 1443.87C747.467 1438.4 723.333 1430 702.8 1414C673.733 1391.6 658.667 1360.27 653.6 1311.6L652.667 1302.4L641.067 1298C625.333 1291.87 606.933 1282.53 593.733 1274L582.8 1266.8L581.467 1273.73Z" fill="#E8FFE9"/>
<path d="M725.333 1360.27V1403.6L736 1408.53C748.667 1414.27 780.8 1422.53 791.067 1422.67C791.6 1422.67 792 1399.2 792 1370.67V1318.67H763.733C748.133 1318.67 733.067 1318.27 730.4 1317.87L725.333 1316.93V1360.27Z" fill="#E8FFE9"/>
<path d="M725.067 1543.6C724.533 1585.87 724.4 1586.93 715.867 1596.67C704.133 1610 684 1618.13 641.333 1626.67C612.533 1632.53 596.133 1636.8 581.333 1642.27C568.4 1647.07 552.4 1655.6 549.333 1659.2C544.933 1664.67 523.067 1668.4 472.667 1672.67C438 1675.6 422.4 1679.33 402.267 1689.73C391.467 1695.2 384 1701.47 384 1704.8C384 1706.4 435.467 1706.67 758.667 1706.67C1081.87 1706.67 1133.33 1706.4 1133.33 1704.8C1133.33 1699.47 1113.87 1687.33 1096 1681.47C1080.27 1676.4 1070.4 1674.8 1038 1672C986.133 1667.47 975.467 1665.33 965.867 1657.6C950.667 1645.47 924.267 1636.4 876 1626.67C833.333 1618.13 813.2 1610 801.467 1596.67C793.067 1587.07 792.8 1585.47 792.267 1548.27C791.867 1520.93 791.467 1514.67 789.867 1514.67C785.467 1514.67 746.267 1509.2 737.6 1507.33C732.267 1506.27 727.333 1505.33 726.667 1505.33C726 1505.33 725.333 1522.53 725.067 1543.6Z" fill="#E8FFE9"/>
</svg>
